<svg xmlns="http://www.w3.org/2000/svg" aria-hidden="true" style="position:absolute;width:0;height:0;overflow:hidden"><defs><symbol id="broom" viewBox="0 0 32 32">
<path  d="M36.341 9.486c-.186-.147-.454-.233-.801-.183-5.899 1.477-12.018 2.639-18.174 3.739.072.134.136.269.181.405.111.297.168.598.183.888 6.218-.982 12.403-2.04 18.361-3.593.618-.285.632-.599.505-.915a.773.773 0 0 0-.139-.228.896.896 0 0 0-.117-.112zM17.078-4.748c-.197.936-.315 1.898-1.867 2.283.949-.079 1.999-.08 2.088 1.637.225-.642-.073-1.529 1.12-1.813-1.176-.285-1.238-1.038-1.341-2.107zM24.85 5.654c-.818.218-1.491-.052-1.991-.83.479.802.422 1.537-.48 2.185 1.046-.388 1.762-.269 2.128.388-.042-.55-.535-1.02.343-1.743zm6.727 9.459c-1.134.886-2.209 1.894-4.199.634 1.062.956 2.147 2.102.54 4.223.867-.497 1.439-1.878 2.955-.894-.933-1.631-.246-2.59.705-3.964zM10.38 5.176c-.938 1.238-2.121 1.601-3.684.633 1.251 1.351 1.503 2.517.709 3.492.834-.402 1.256-1.461 2.916-.559-.84-1.129-.841-2.313.06-3.566zm5.775 8.083-1.336.234a4.084 4.084 0 0 1 .284 1.251l1.481-.227a2.032 2.032 0 0 0-.116-.701 1.87 1.87 0 0 0-.313-.557zm-2.936-.209a.779.779 0 0 0-.1-.076.225.225 0 0 0-.111-.036l-.049.008-.045-.005c-3.752-.207-8.563-1.409-12.694-2.13a31.481 31.481 0 0 1 1.48 2.514l3.019.042-2.582.831a21.707 21.707 0 0 1 1.227 3.118l3.141-.942-2.854 2.031c.15.673.236 1.324.255 1.936 3.777-1.657 7.211-2.132 9.723-4.483l.06-.048c.125-.083.229-.273.27-.589a2.982 2.982 0 0 0-.13-1.105c-.116-.375-.307-.731-.489-.94a.99.99 0 0 0-.121-.126zm5.314 4.471c-.084.998-.607 1.597-1.829 1.593 1.186.325 1.752.881 1.658 1.684.312-.505.172-1.227 1.417-1.294-.871-.338-1.299-.991-1.246-1.983zm-1.089 6.498c-.169 1.279-.278 2.175-1.806 2.388 1.539.474 1.119 1.509 1.394 2.295.17-2.045 1.521-1.932 2.748-1.736-1.996-.628-2.112-1.796-2.336-2.946z"
 />
</symbol>
<symbol id="mario-flag" viewBox="0 0 32 32">
<path d="M28 1.563c-.525 0-.938.413-.938.938s.413.938.938.938.938-.413.938-.938-.413-.938-.938-.938zm.438 3.158L23.319 6l5.119 1.281V4.72zm-1 3.467v18.25h1.125V8.469l-1.125-.281zm-9.875 3.375v2.875h2.875v-2.875h-2.875zm-4 4v2.875h2.875v-2.875h-2.875zm4 0v2.875h2.875v-2.875h-2.875zm-8 4v2.875h2.875v-2.875H9.563zm4 0v2.875h2.875v-2.875h-2.875zm4 0v2.875h2.875v-2.875h-2.875zm-12 4v2.875h2.875v-2.875H5.563zm4 0v2.875h2.875v-2.875H9.563zm4 0v2.875h2.875v-2.875h-2.875zm4 0v2.875h2.875v-2.875h-2.875zm-16 4v2.875h2.875v-2.875H1.563zm4 0v2.875h2.875v-2.875H5.563zm4 0v2.875h2.875v-2.875H9.563zm4 0v2.875h2.875v-2.875h-2.875zm4 0v2.875h2.875v-2.875h-2.875zm9 0v2.875h2.875v-2.875h-2.875z"
 />
</symbol>
<symbol id="icon-user" viewBox="0 0 32 32">
<path d="M31.11 28.336c-.201-.133-3.848-2.525-9.273-3.699 1.99-2.521 3.268-5.912 3.811-8.169.754-3.128.461-9.248-2.543-13.062C21.349 1.177 18.892 0 16 0s-5.349 1.178-7.104 3.406C5.892 7.219 5.6 13.339 6.353 16.467c.543 2.257 1.82 5.648 3.811 8.169-5.425 1.174-9.072 3.566-9.272 3.699A1.999 1.999 0 0 0 2 32h28a2.001 2.001 0 0 0 1.11-3.664zm-10.843-4.938-.326.414c-2.385 2.74-5.495 2.74-7.879 0l-.327-.414c-2.785-3.529-4.167-8.197-3.572-12.65C8.708 6.469 11.16 2 16 2s7.293 4.47 7.838 8.749c.593 4.455-.784 9.118-3.571 12.649zM2 30c.138-.092 3.526-2.314 8.586-3.408l2.484-.537c.887.582 1.86.945 2.93.945 1.071 0 2.043-.363 2.93-.945l2.484.537C26.434 27.678 29.81 29.875 30 30H2z"
/>
</symbol>
<symbol id="icon-plus" viewBox="0 0 32 32">
<path d="M15.5 29.5c-7.18 0-13-5.82-13-13s5.82-13 13-13 13 5.82 13 13-5.82 13-13 13zm6.438-13.562a1 1 0 0 0-1-1h-4v-4a1 1 0 0 0-1-1h-1a1 1 0 0 0-1 1v4h-4a1 1 0 0 0-1 1v1a1 1 0 0 0 1 1h4v4a1 1 0 0 0 1 1h1a1 1 0 0 0 1-1v-4h4a1 1 0 0 0 1-1v-1z"
/>

</symbol>
</defs>
</svg>